<?xml version="1.0" standalone="no"?>
<!DOCTYPE svg PUBLIC "-//W3C//DTD SVG 20010904//EN"
 "http://www.w3.org/TR/2001/REC-SVG-20010904/DTD/svg10.dtd">
<svg version="1.0" xmlns="http://www.w3.org/2000/svg"
 width="1408.000000pt" height="752.000000pt" viewBox="0 0 1408.000000 752.000000"
 preserveAspectRatio="xMidYMid meet">

<g transform="translate(0.000000,752.000000) scale(0.100000,-0.100000)"
fill="#000000" stroke="none">
<path d="M7340 6453 c-19 -9 -21 -13 -7 -13 16 0 16 -2 1 -24 -10 -17 -13 -30
-7 -41 8 -13 1 -129 -11 -205 -2 -14 -5 -31 -5 -37 -1 -7 -6 -13 -12 -13 -5 0
-8 4 -4 9 10 17 8 188 -2 206 -9 16 -11 16 -16 1 -4 -10 -3 -15 3 -11 6 4 10
-9 10 -32 0 -21 -4 -33 -8 -26 -4 6 -5 -33 -4 -88 3 -71 1 -99 -8 -99 -8 0 -9
-10 -5 -31 4 -18 9 -54 10 -81 l3 -50 -29 28 c-16 15 -29 24 -29 18 0 -5 18
-23 39 -41 l39 -32 5 42 c4 23 13 94 21 157 8 63 22 173 31 243 10 71 15 129
14 131 -2 1 -15 -3 -29 -11z m-43 -395 c-3 -8 -6 -5 -6 6 -1 11 2 17 5 13 3
-3 4 -12 1 -19z"/>
<path d="M7306 6355 c4 -8 8 -15 10 -15 2 0 4 7 4 15 0 8 -4 15 -10 15 -5 0
-7 -7 -4 -15z"/>
<path d="M7312 6290 c0 -19 2 -27 5 -17 2 9 2 25 0 35 -3 9 -5 1 -5 -18z"/>
<path d="M7122 5969 c-19 -30 -8 -34 12 -4 9 14 13 25 9 25 -5 0 -14 -9 -21
-21z"/>
<path d="M7085 5922 c-5 -4 -21 -21 -35 -37 -22 -27 -21 -26 13 4 33 32 42 41
35 41 -2 0 -7 -4 -13 -8z"/>
<path d="M6274 5810 c-225 -13 -385 -70 -549 -195 -188 -144 -340 -412 -361
-636 -3 -35 -7 -75 -9 -89 -2 -14 -4 -170 -4 -347 -1 -178 -5 -323 -9 -323
-13 0 -22 649 -11 755 5 50 20 126 33 170 l23 80 -41 16 c-22 9 -46 14 -53 12
-18 -7 -32 77 -17 106 7 13 10 30 7 39 -4 8 0 20 8 26 8 6 15 18 17 26 6 26
43 80 52 75 5 -3 12 0 16 6 4 8 3 9 -4 5 -24 -15 -11 13 23 50 20 22 40 48 46
59 17 31 -56 -52 -106 -121 -90 -124 -150 -260 -192 -434 -16 -68 -18 -151
-21 -897 l-3 -823 625 0 c651 0 706 3 872 45 248 63 521 259 670 481 100 150
175 342 188 484 5 52 5 53 -4 16 -6 -22 -18 -49 -28 -60 -13 -14 -13 -17 -2
-11 8 4 6 -2 -5 -14 -14 -14 -37 -22 -69 -25 -41 -4 -49 -2 -53 15 -3 10 -11
19 -18 19 -8 0 -10 9 -7 25 9 48 -14 25 -28 -27 -58 -230 -241 -474 -445 -595
-213 -127 -341 -151 -770 -142 l-110 2 110 7 c61 4 162 8 225 9 90 1 140 7
230 30 118 29 255 85 279 115 15 18 1 22 -17 4 -6 -6 -30 -11 -52 -10 -27 1
-39 -2 -34 -9 3 -6 15 -9 25 -6 11 3 19 1 19 -4 0 -5 -10 -9 -23 -9 -13 0 -28
-5 -35 -12 -6 -6 -15 -8 -19 -4 -4 4 -1 12 7 17 11 8 12 12 3 16 -7 2 -13 11
-13 18 0 8 -17 16 -39 20 -49 8 -64 33 -17 27 24 -3 28 -1 16 7 -8 6 -24 11
-35 12 -17 1 -16 2 5 9 31 9 143 73 178 101 62 49 132 113 132 122 0 5 -25
-14 -56 -42 -105 -96 -207 -152 -341 -188 -61 -16 -116 -18 -503 -18 l-435 0
-3 540 c-1 340 1 566 8 610 11 76 54 215 78 255 143 235 296 348 541 400 80
17 124 21 188 17 47 -3 80 -1 77 4 -3 5 -23 9 -45 9 -22 0 -38 4 -34 9 3 5 -3
12 -12 14 -10 3 5 6 32 7 49 2 49 2 18 11 -38 11 -40 17 -13 52 11 14 20 30
20 36 0 6 10 11 23 12 21 1 21 1 -3 9 -14 4 -41 9 -60 10 -24 2 -10 6 45 15
93 14 59 15 -131 5z m-37 -176 c-3 -3 -12 -4 -19 -1 -8 3 -5 6 6 6 11 1 17 -2
13 -5z m-977 -327 c0 -5 -4 -5 -10 -2 -5 3 -10 -2 -10 -11 0 -10 -2 -15 -5
-12 -4 3 -3 18 1 33 5 20 9 23 15 13 5 -7 9 -17 9 -21z m243 -423 c13 -5 17
-18 17 -65 0 -57 -14 -84 -31 -58 -5 8 -9 10 -9 5 0 -6 -5 -5 -12 2 -6 6 -11
34 -9 62 1 27 -2 50 -7 50 -5 0 -9 6 -9 14 0 11 6 12 21 5 12 -5 29 -12 39
-15z m1021 -1096 c10 -10 -2 -13 -58 -13 l-71 -1 50 12 c66 16 65 16 79 2z
m36 -44 c0 -18 -54 -19 -72 -1 -7 8 -20 12 -28 10 -10 -3 -11 -2 -3 4 19 14
103 3 103 -13z"/>
<path d="M6924 5733 c-117 -117 -217 -161 -337 -150 l-62 6 55 -22 c30 -12 82
-37 116 -55 108 -59 252 -206 269 -275 11 -41 20 -33 33 29 18 88 81 241 133
325 l47 77 -47 44 c-25 25 -64 58 -86 74 l-40 29 -81 -82z m160 -182 c-13 -22
-21 -27 -27 -18 -6 8 -7 4 -4 -10 3 -13 3 -23 1 -23 -9 0 -74 63 -74 73 0 5 9
2 20 -8 11 -10 23 -15 27 -11 4 4 1 12 -7 17 -11 8 -8 8 10 3 14 -4 27 -11 29
-16 2 -5 10 0 18 12 22 32 28 16 7 -19z"/>
<path d="M7990 5810 c-117 -14 -219 -51 -327 -119 -41 -25 -59 -49 -28 -37 8
3 15 1 15 -3 0 -14 -28 -21 -33 -8 -5 14 -87 -58 -140 -125 -20 -25 -51 -75
-68 -110 -16 -35 -35 -71 -40 -82 -29 -51 -60 -186 -63 -271 -2 -49 -2 -69 1
-42 4 46 23 69 21 25 -3 -48 2 -79 12 -73 6 3 10 1 10 -5 0 -6 5 -8 10 -5 12
7 14 85 2 85 -13 0 -3 61 16 98 9 17 21 32 25 32 5 0 -1 9 -14 19 l-24 19 27
-5 c26 -5 26 -4 18 32 -5 21 -6 44 -3 51 3 8 0 14 -6 14 -6 0 -11 -4 -11 -10
0 -5 -5 -10 -12 -10 -9 0 -9 3 0 12 7 7 12 24 12 39 0 15 9 37 21 50 18 21 20
21 13 4 -4 -11 -9 -33 -11 -50 -3 -23 -2 -27 6 -15 6 8 11 11 11 5 1 -5 5 0
10 11 11 29 70 39 88 16 11 -14 13 -14 11 -2 -4 18 58 86 69 76 3 -4 -1 -21
-11 -38 -10 -17 -16 -33 -13 -35 6 -6 36 52 36 69 0 8 9 14 20 15 26 2 25 -5
-3 -47 -29 -43 -62 -128 -53 -137 3 -3 6 0 6 8 0 8 7 22 14 32 12 15 18 16 35
7 18 -9 21 -8 21 7 1 12 6 7 14 -12 8 -16 21 -39 30 -50 17 -20 17 -20 11 3
-6 21 -5 23 13 13 15 -8 22 -8 25 2 2 6 2 -1 0 -18 -2 -17 -1 -25 4 -19 4 6
16 13 26 17 9 3 17 13 17 22 0 21 49 20 66 -2 12 -16 13 -16 14 -2 0 9 -7 22
-15 29 -17 14 -20 30 -5 30 5 0 16 -15 23 -32 8 -18 22 -40 32 -48 13 -11 10
0 -11 40 -66 126 -10 266 128 319 l53 20 -56 0 c-105 1 -241 -56 -325 -136
-16 -16 -65 -35 -72 -29 -3 3 7 21 22 40 14 19 26 40 26 46 0 7 10 20 23 31
18 15 19 20 8 28 -19 12 -5 31 25 31 13 0 24 6 24 13 0 8 18 22 40 32 22 10
40 23 40 29 0 6 -5 5 -12 -2 -7 -7 -19 -12 -27 -12 -10 0 -12 3 -5 10 10 10
36 15 126 27 26 3 53 12 59 19 6 8 32 15 58 15 33 1 39 3 21 8 -17 4 -4 7 40
12 l65 6 -90 2 -90 3 55 9 c107 18 74 23 -50 9z m-153 -66 c-3 -3 -12 -4 -19
-1 -8 3 -5 6 6 6 11 1 17 -2 13 -5z m-82 -24 c-3 -5 -12 -10 -18 -10 -7 0 -6
4 3 10 19 12 23 12 15 0z m-70 -40 c-3 -5 -12 -10 -18 -10 -7 0 -6 4 3 10 19
12 23 12 15 0z m-5 -50 c0 -5 -2 -10 -4 -10 -3 0 -8 5 -11 10 -3 6 -1 10 4 10
6 0 11 -4 11 -10z"/>
<path d="M8168 5803 c7 -3 16 -2 19 1 4 3 -2 6 -13 5 -11 0 -14 -3 -6 -6z"/>
<path d="M8190 5776 c0 -2 13 -6 29 -8 17 -2 28 -1 25 4 -5 8 -54 12 -54 4z"/>
<path d="M5489 5703 l-34 -38 38 34 c34 33 42 41 34 41 -2 0 -19 -17 -38 -37z"/>
<path d="M6458 5603 c7 -3 16 -2 19 1 4 3 -2 6 -13 5 -11 0 -14 -3 -6 -6z"/>
<path d="M5338 5485 c-20 -26 -22 -35 -10 -35 9 0 35 50 30 55 -2 2 -11 -7
-20 -20z"/>
<path d="M7565 5329 c-4 -6 -5 -12 -2 -15 2 -3 7 2 10 11 7 17 1 20 -8 4z"/>
<path d="M7546 5283 c-6 -14 -5 -15 5 -6 7 7 10 15 7 18 -3 3 -9 -2 -12 -12z"/>
<path d="M6412 5160 c0 -14 2 -19 5 -12 2 6 2 18 0 25 -3 6 -5 1 -5 -13z"/>
<path d="M7486 5083 c-8 -37 -22 -73 -31 -79 -8 -6 -15 -23 -15 -37 0 -14 -7
-32 -15 -41 -19 -18 -20 -32 -1 -17 21 17 65 122 76 181 15 78 5 73 -14 -7z"/>
<path d="M6127 5133 c18 -2 50 -2 70 0 21 2 7 4 -32 4 -38 0 -55 -2 -38 -4z"/>
<path d="M6620 5088 c-3 -31 -1 -53 3 -49 5 5 7 30 5 57 l-3 49 -5 -57z"/>
<path d="M6298 4948 c-2 -95 -6 -178 -11 -185 -6 -9 -14 -8 -35 2 -15 8 -41
20 -59 27 -17 7 -34 20 -36 30 -8 30 -27 20 -27 -14 0 -52 -15 -21 -21 45 -3
34 -7 -35 -7 -155 -1 -120 1 -218 6 -217 4 0 51 48 105 106 l97 106 0 213 c0
118 -2 214 -4 214 -2 0 -6 -78 -8 -172z"/>
<path d="M6411 4953 c0 -79 2 -143 7 -142 10 1 122 135 122 146 0 4 -14 -8
-31 -27 -17 -19 -33 -34 -35 -32 -12 7 -25 0 -21 -11 2 -6 -1 -17 -8 -23 -9
-9 -12 -3 -14 25 -1 20 -6 74 -10 121 -8 83 -8 82 -10 -57z"/>
<path d="M7440 5048 c0 -9 5 -20 10 -23 13 -8 13 5 0 25 -8 13 -10 13 -10 -2z"/>
<path d="M7370 4945 c-7 -9 -11 -17 -8 -20 2 -2 12 4 21 15 9 11 13 20 8 20
-5 0 -14 -7 -21 -15z"/>
<path d="M5778 4790 c-2 -82 -1 -150 2 -150 3 0 24 18 45 40 21 22 44 40 50
40 7 0 34 -22 61 -50 27 -27 51 -50 54 -50 3 0 4 72 2 159 l-3 159 -104 1
-104 1 -3 -150z m32 114 c0 -8 -5 -12 -10 -9 -6 4 -8 11 -5 16 9 14 15 11 15
-7z m160 -15 c0 -24 -4 -30 -15 -25 -10 3 -15 -1 -16 -12 0 -10 -3 -12 -6 -4
-2 6 -9 10 -14 6 -12 -7 -49 5 -49 17 0 5 14 9 32 9 50 0 20 19 -34 21 -77 4
-55 19 27 19 l75 0 0 -31z"/>
<path d="M7358 4857 c-20 -17 -47 -40 -60 -50 -22 -18 -22 -18 10 0 40 21 111
82 97 82 -5 0 -26 -14 -47 -32z"/>
<path d="M7314 4855 c-10 -8 -14 -15 -8 -15 6 0 17 7 24 15 16 19 9 19 -16 0z"/>
<path d="M7082 4830 c0 -14 2 -19 5 -12 2 6 2 18 0 25 -3 6 -5 1 -5 -13z"/>
<path d="M7492 4816 c-1 -5 -3 -89 -5 -185 -2 -123 -1 -159 5 -121 7 45 7 335
0 306z"/>
<path d="M7081 4784 c0 -11 3 -14 6 -6 3 7 2 16 -1 19 -3 4 -6 -2 -5 -13z"/>
<path d="M7187 4789 c-9 -6 -27 -7 -39 -3 -21 6 -21 5 -6 -10 16 -15 19 -15
50 4 33 20 29 29 -5 9z"/>
<path d="M7205 4768 c-22 -11 -50 -29 -62 -40 -12 -11 -26 -17 -32 -13 -6 3
-11 0 -11 -8 0 -8 -7 -17 -15 -21 -8 -3 -15 -10 -15 -17 0 -6 17 3 38 19 20
16 66 46 102 66 68 38 64 50 -5 14z"/>
<path d="M7370 4710 c-14 -11 -21 -20 -17 -20 5 0 20 9 34 20 14 11 22 20 17
20 -5 0 -20 -9 -34 -20z"/>
<path d="M7306 4675 c-11 -8 -15 -15 -10 -15 6 0 19 7 30 15 10 8 15 14 9 14
-5 0 -19 -6 -29 -14z"/>
<path d="M6700 4615 c-19 -19 -31 -35 -27 -35 7 0 67 60 67 66 0 8 -8 2 -40
-31z"/>
<path d="M6338 4398 c-198 -200 -218 -217 -228 -199 -9 17 -8 20 5 15 10 -4
15 0 15 10 0 9 5 16 12 16 7 0 29 16 50 36 l37 37 -24 19 c-19 14 -22 23 -16
45 5 18 14 28 26 28 10 0 19 6 21 13 1 7 0 8 -3 2 -6 -12 -23 -14 -23 -2 0 4
23 34 51 65 28 31 48 57 45 57 -4 0 -45 -42 -143 -148 l-40 -43 -126 128 -127
128 -50 -55 c-28 -30 -68 -72 -88 -92 l-36 -38 214 -215 c118 -118 220 -215
227 -215 6 0 16 6 20 14 4 8 31 38 58 68 28 29 75 80 105 113 30 33 103 112
161 175 179 195 192 210 180 210 -6 0 -11 -5 -11 -11 0 -6 -10 -8 -22 -5 -13
3 -17 3 -10 0 18 -9 15 -27 -4 -20 -10 4 -26 -1 -38 -11 -15 -13 -14 -10 4 11
24 28 24 28 2 17 -12 -7 -22 -8 -21 -4 1 4 1 15 0 23 -1 13 -2 13 -11 0 -5 -8
-12 -11 -16 -7 -4 4 1 16 11 27 10 11 16 21 14 23 -2 2 -102 -95 -221 -215z
m-365 -34 c30 -41 15 -43 -25 -4 -30 31 -33 36 -15 33 12 -3 30 -16 40 -29z"/>
<path d="M8560 4593 c0 -6 5 -15 10 -18 6 -4 1 -18 -14 -36 -23 -27 -26 -59
-5 -59 5 0 9 -7 9 -15 0 -8 -9 -15 -20 -15 -28 0 -37 -44 -17 -86 9 -18 12
-36 8 -39 -5 -2 -12 6 -15 19 -7 29 -56 106 -67 106 -4 0 7 -23 26 -51 91
-138 58 -341 -76 -468 -43 -40 -166 -104 -243 -126 -84 -24 -279 -24 -366 0
-92 26 -198 77 -269 131 -34 26 -63 45 -65 43 -2 -2 -15 -26 -29 -54 -28 -55
-89 -141 -160 -224 -26 -30 -47 -58 -47 -62 0 -14 123 -96 205 -137 168 -85
308 -121 500 -129 141 -6 205 1 369 43 90 23 271 102 236 104 -8 0 -21 9 -28
20 -11 18 -10 20 18 20 45 0 45 0 42 -17 -2 -10 19 0 57 27 54 38 109 88 74
66 -7 -4 -19 -4 -25 1 -7 4 -29 8 -48 9 -19 1 -58 5 -86 8 -40 6 -53 4 -64 -8
-8 -11 -9 -16 -1 -16 6 0 11 -5 11 -11 0 -8 -5 -8 -15 1 -11 10 -25 10 -59 1
-25 -6 -51 -8 -59 -5 -8 3 -59 -7 -113 -22 -85 -23 -118 -27 -229 -27 -163 1
-275 25 -406 87 -48 23 -50 26 -19 20 31 -5 38 -2 58 26 14 18 30 29 38 26 7
-3 39 3 71 14 32 10 67 21 78 24 11 3 6 4 -12 2 -18 -1 -30 1 -27 5 2 4 -1 9
-8 12 -7 2 1 3 17 0 59 -8 346 -22 358 -17 8 2 12 -7 13 -26 1 -24 -1 -28 -12
-19 -11 9 -22 8 -44 -1 -28 -12 -42 -40 -20 -40 19 0 10 -32 -10 -37 -11 -3
-20 -14 -20 -24 0 -16 8 -19 43 -19 51 0 223 54 220 69 -2 6 3 8 10 5 8 -3 42
9 77 27 72 35 200 157 242 229 33 57 65 161 74 238 8 78 -17 206 -58 290 -31
63 -107 158 -108 135z m51 -66 c12 -22 12 -22 -10 -3 -21 19 -21 19 -23 0 0
-10 -1 -25 -1 -33 1 -9 -2 -10 -9 -3 -8 8 -7 20 2 41 13 33 23 32 41 -2z m-74
-399 c-3 -7 -5 -2 -5 12 0 14 2 19 5 13 2 -7 2 -19 0 -25z m-342 -337 c-11 -5
-40 -11 -65 -14 l-45 -6 50 14 c56 15 91 18 60 6z m475 -171 c0 -17 -26 -17
-27 1 -1 12 3 16 13 12 8 -3 14 -9 14 -13z m-107 -20 c6 -23 3 -24 -23 -8 -16
10 -24 10 -40 0 -11 -7 -20 -8 -20 -3 0 9 43 29 66 30 7 1 14 -8 17 -19z m27
-30 c0 -5 -5 -10 -11 -10 -5 0 -7 5 -4 10 3 6 8 10 11 10 2 0 4 -4 4 -10z"/>
<path d="M7281 4404 c0 -11 3 -14 6 -6 3 7 2 16 -1 19 -3 4 -6 -2 -5 -13z"/>
<path d="M7681 4224 c0 -11 3 -14 6 -6 3 7 2 16 -1 19 -3 4 -6 -2 -5 -13z"/>
<path d="M7700 4129 c25 -86 127 -169 228 -185 48 -7 132 11 179 38 35 21 46
36 14 18 -23 -12 -34 -13 -28 -2 3 4 -19 6 -49 5 -30 -1 -52 2 -49 6 2 5 -11
11 -30 13 -19 2 -36 -1 -38 -6 -2 -6 -22 -11 -45 -11 -23 0 -42 -3 -42 -7 0
-13 -34 5 -52 27 -19 24 -15 33 7 15 21 -17 31 -5 14 16 -8 9 -12 27 -11 40 3
23 -11 31 -42 25 -5 -1 -13 4 -17 11 -6 9 -9 5 -9 -12 -1 -23 -2 -23 -15 8
-18 41 -26 42 -15 1z"/>
<path d="M7827 4101 c-4 -17 -1 -21 21 -21 19 0 23 3 13 9 -7 5 -17 14 -21 21
-5 8 -9 5 -13 -9z"/>
<path d="M6670 3850 c-8 -5 -10 -10 -5 -10 6 0 17 5 25 10 8 5 11 10 5 10 -5
0 -17 -5 -25 -10z"/>
<path d="M6835 3790 c-3 -5 -2 -10 4 -10 5 0 13 5 16 10 3 6 2 10 -4 10 -5 0
-13 -4 -16 -10z"/>
<path d="M6800 3759 c0 -5 5 -7 10 -4 6 3 10 8 10 11 0 2 -4 4 -10 4 -5 0 -10
-5 -10 -11z"/>
<path d="M8028 3733 c7 -3 16 -2 19 1 4 3 -2 6 -13 5 -11 0 -14 -3 -6 -6z"/>
<path d="M8460 3689 c-14 -10 -45 -29 -70 -40 -26 -12 -39 -23 -32 -26 8 -3
19 0 25 6 6 6 21 11 33 11 12 0 24 7 28 15 3 9 12 12 22 8 13 -5 16 -3 11 10
-5 14 -2 16 21 12 15 -3 20 -2 12 1 -8 4 -17 11 -20 15 -3 4 -17 -1 -30 -12z"/>
<path d="M8716 3664 c-5 -14 -4 -15 9 -4 17 14 19 20 6 20 -5 0 -12 -7 -15
-16z"/>
<path d="M5168 2871 c-28 -25 -33 -36 -33 -75 0 -36 6 -51 27 -73 23 -23 36
-27 83 -27 52 -1 59 2 86 32 31 35 37 73 17 117 -27 61 -126 74 -180 26z m173
-32 c18 -35 3 -31 -26 7 -24 31 -25 35 -7 25 12 -6 27 -21 33 -32z"/>
<path d="M5699 2861 c-95 -30 -151 -98 -159 -196 l-5 -60 -52 -3 -53 -3 0 -69
0 -69 53 -3 52 -3 0 -243 0 -242 61 0 c34 0 75 -3 93 -6 l31 -6 2 248 3 249
80 5 c55 3 80 9 79 18 -1 6 -2 37 -2 67 l-2 55 -80 0 -80 0 0 30 c0 70 47 108
112 89 18 -5 38 -9 44 -9 16 0 50 118 37 131 -25 25 -156 37 -214 20z m94 -8
c-7 -2 -19 -2 -25 0 -7 3 -2 5 12 5 14 0 19 -2 13 -5z m-86 -250 c-3 -10 -5
-4 -5 12 0 17 2 24 5 18 2 -7 2 -21 0 -30z"/>
<path d="M6968 2813 c7 -3 16 -2 19 1 4 3 -2 6 -13 5 -11 0 -14 -3 -6 -6z"/>
<path d="M4437 2388 l3 -423 305 -3 305 -3 0 86 0 85 -210 0 -210 0 0 340 0
340 -97 0 -98 0 2 -422z m600 -365 c-2 -16 -4 -5 -4 22 0 28 2 40 4 28 2 -13
2 -35 0 -50z"/>
<path d="M6870 2789 c-105 -48 -160 -125 -160 -227 0 -132 71 -192 294 -251
175 -46 206 -69 182 -140 -14 -42 -52 -58 -146 -62 l-65 -3 70 -6 70 -6 -81
-2 c-122 -3 -285 54 -270 94 3 9 1 14 -4 12 -6 -2 -25 -33 -42 -70 -38 -82
-36 -86 73 -128 155 -59 329 -63 443 -9 114 53 180 181 145 279 -7 21 -8 20
-5 -11 2 -19 1 -51 -4 -70 -8 -33 -8 -32 -9 16 -1 28 -9 61 -17 75 -8 14 -13
17 -10 8 3 -10 1 -20 -4 -23 -6 -4 -10 1 -10 9 0 9 -4 16 -10 16 -5 0 -10 -8
-10 -17 0 -15 -2 -15 -9 -4 -6 9 -5 24 0 39 8 22 8 23 -6 12 -10 -8 -15 -9
-15 -1 0 6 -5 11 -11 11 -5 0 -7 -5 -4 -11 4 -5 4 -21 1 -34 -5 -19 -12 -24
-34 -22 -31 2 -41 37 -11 37 19 0 33 37 15 43 -6 2 9 3 33 1 24 -1 48 -9 53
-16 8 -10 9 -10 6 2 -7 25 -96 71 -186 96 -95 26 -127 30 -72 9 35 -14 35 -14
-20 -9 -30 3 -62 12 -70 20 -13 14 -12 15 15 9 23 -5 20 -1 -15 15 -25 12 -55
31 -67 42 -27 25 -38 71 -24 95 9 15 11 11 12 -22 1 -26 3 -31 6 -15 7 45 25
69 65 84 71 29 194 15 289 -32 21 -11 41 -16 44 -12 7 11 -84 57 -127 65 -21
4 -36 12 -35 18 1 7 -24 15 -61 21 -60 8 -63 10 -62 35 4 51 2 54 -32 47 -18
-3 -46 -8 -63 -11 l-30 -5 30 15 c46 22 6 17 -45 -6z m10 -19 c0 -5 -6 -10
-14 -10 -7 0 -19 -6 -25 -14 -10 -12 -6 -15 19 -21 17 -4 34 -4 37 -1 4 3 -3
6 -15 6 -12 0 -22 4 -22 9 0 15 41 24 53 12 6 -6 18 -11 27 -11 9 0 17 -7 17
-15 0 -10 -10 -15 -30 -15 -40 0 -32 -6 18 -13 23 -4 34 -3 26 2 -9 6 -10 11
-2 15 6 4 11 2 11 -3 0 -7 29 -12 73 -13 l72 -1 -80 -7 c-44 -3 -94 -14 -112
-23 -18 -10 -33 -13 -33 -7 0 5 7 10 15 10 32 0 13 16 -20 17 -24 1 -43 9 -55
23 -12 13 -24 19 -32 14 -7 -4 -1 4 14 18 22 22 37 31 56 37 1 1 2 -3 2 -9z
m-100 -145 c0 -14 -2 -25 -4 -25 -2 0 -6 11 -8 25 -3 14 -1 25 3 25 5 0 9 -11
9 -25z m-33 -27 c-3 -7 -5 -2 -5 12 0 14 2 19 5 13 2 -7 2 -19 0 -25z m93
-183 c0 -8 -4 -15 -10 -15 -5 0 -10 7 -10 15 0 8 5 15 10 15 6 0 10 -7 10 -15z
m420 -50 c14 -8 19 -14 10 -14 -8 0 -24 6 -34 14 -25 19 -9 19 24 0z m-55 -45
c-3 -5 -12 -10 -18 -10 -7 0 -6 4 3 10 19 12 23 12 15 0z"/>
<path d="M7326 2714 c-9 -24 -2 -26 12 -4 7 11 8 20 3 20 -5 0 -12 -7 -15 -16z"/>
<path d="M6141 2601 c-142 -53 -219 -173 -209 -330 7 -94 33 -156 90 -212 133
-130 406 -141 521 -21 l27 28 -50 49 -49 49 -56 -29 c-46 -23 -68 -28 -121
-27 -35 1 -73 6 -83 12 -11 5 -23 10 -28 10 -4 -1 8 -9 27 -20 19 -11 28 -19
19 -20 -25 0 -97 56 -114 91 -30 57 -22 59 253 59 l245 0 -6 75 c-12 132 -68
219 -179 276 -62 33 -211 38 -287 10z m197 2 c-10 -2 -28 -2 -40 0 -13 2 -5 4
17 4 22 1 32 -1 23 -4z m109 -35 c49 -31 113 -100 113 -120 0 -6 -18 13 -39
40 -27 34 -59 60 -102 81 -34 17 -53 31 -43 31 11 0 43 -15 71 -32z m-97 -107
c37 -19 80 -73 80 -100 0 -14 -19 -16 -161 -13 -160 3 -160 3 -153 25 28 89
147 135 234 88z m237 -133 c-3 -7 -5 -2 -5 12 0 14 2 19 5 13 2 -7 2 -19 0
-25z m-88 -214 c45 -49 33 -53 -13 -4 -21 22 -34 40 -28 40 5 0 23 -16 41 -36z"/>
<path d="M7417 2614 c-3 -3 11 -43 30 -87 20 -45 57 -131 83 -192 26 -60 73
-168 104 -238 35 -79 55 -136 51 -147 -8 -27 -62 -70 -88 -71 -20 -1 -20 -2 3
-9 20 -7 16 -8 -22 -9 -61 -1 -100 16 -92 41 12 40 -8 14 -41 -52 l-35 -70 42
-21 c81 -42 223 -35 291 13 43 30 87 106 151 256 31 74 56 135 56 137 0 3 11
28 24 57 30 67 76 180 76 187 -1 14 -22 -29 -46 -94 -15 -38 -31 -75 -36 -81
-4 -6 -19 -38 -33 -70 -14 -35 -24 -50 -25 -37 0 12 -3 23 -7 26 -5 2 -3 2 4
1 14 -3 27 31 18 46 -5 8 -12 7 -23 -2 -13 -11 -15 -11 -8 2 4 8 -4 2 -19 -14
-20 -22 -29 -26 -35 -16 -4 7 -6 20 -2 28 3 9 1 13 -5 9 -15 -10 -3 40 13 54
8 6 14 20 14 31 0 10 12 47 26 81 15 34 30 73 35 87 4 14 17 49 28 79 11 30
19 57 16 59 -3 3 -65 -124 -65 -134 0 -2 -25 -67 -55 -143 -30 -77 -55 -149
-55 -161 0 -43 -26 -12 -64 78 -22 51 -41 90 -43 88 -2 -2 3 -21 12 -41 18
-44 15 -57 -5 -20 -14 27 -25 31 -35 15 -10 -16 -55 -12 -55 4 0 8 -5 18 -10
21 -7 4 -9 -3 -4 -22 3 -15 -8 1 -26 37 -33 67 -100 231 -100 244 0 13 -37 56
-43 50z m241 -499 c-3 -3 -9 2 -12 12 -6 14 -5 15 5 6 7 -7 10 -15 7 -18z
m234 -47 c-8 -8 -9 -4 -5 13 4 13 8 18 11 10 2 -7 -1 -18 -6 -23z m-31 -71
c-10 -9 -11 -8 -5 6 3 10 9 15 12 12 3 -3 0 -11 -7 -18z m-14 -39 c-3 -8 -6
-5 -6 6 -1 11 2 17 5 13 3 -3 4 -12 1 -19z"/>
<path d="M5152 2288 l3 -323 90 0 90 0 3 323 2 322 -95 0 -95 0 2 -322z m175
-125 c-1 -76 -3 -14 -3 137 0 151 2 213 3 138 2 -76 2 -200 0 -275z"/>
<path d="M8220 2285 l0 -315 90 0 c102 0 124 17 28 22 -57 3 -63 5 -66 26 -2
12 -10 22 -18 22 -12 0 -14 44 -14 280 0 180 -4 280 -10 280 -6 0 -10 -112
-10 -315z"/>
<path d="M7550 2576 c0 -2 7 -6 15 -10 8 -3 15 -1 15 4 0 6 -7 10 -15 10 -8 0
-15 -2 -15 -4z"/>
<path d="M8106 2565 c-9 -26 -7 -32 5 -12 6 10 9 21 6 23 -2 3 -7 -2 -11 -11z"/>
<path d="M7486 2525 c4 -8 8 -15 10 -15 2 0 4 7 4 15 0 8 -4 15 -10 15 -5 0
-7 -7 -4 -15z"/>
<path d="M9073 2498 c-50 -55 -67 -108 -68 -208 0 -84 3 -101 27 -145 32 -62
103 -129 166 -158 40 -19 65 -22 162 -22 110 0 117 1 170 31 51 29 120 101
120 126 0 6 -14 -6 -30 -27 -72 -90 -147 -120 -288 -113 -66 3 -99 10 -137 29
-96 47 -165 142 -180 250 -8 57 16 160 48 203 43 57 48 76 10 34z"/>
<path d="M9290 2479 c-28 -11 -90 -68 -90 -82 0 -5 9 2 20 15 62 79 218 77
274 -4 15 -20 15 -20 80 18 36 21 66 42 66 46 0 4 -27 -9 -60 -28 l-59 -36
-39 31 c-59 48 -133 63 -192 40z"/>
<path d="M8495 2471 c-11 -5 -29 -19 -40 -31 l-20 -22 39 23 c48 28 122 31
161 5 48 -32 55 -67 55 -281 l0 -195 96 0 c61 0 93 4 89 10 -3 6 -39 10 -79
10 -68 0 -74 2 -80 23 -3 12 -6 94 -6 182 0 183 -13 229 -72 265 -34 21 -105
26 -143 11z"/>
<path d="M8415 2399 c-4 -6 -5 -12 -2 -15 2 -3 7 2 10 11 7 17 1 20 -8 4z"/>
<path d="M8401 2354 c0 -11 3 -14 6 -6 3 7 2 16 -1 19 -3 4 -6 -2 -5 -13z"/>
<path d="M7356 2317 c3 -10 9 -15 12 -12 3 3 0 11 -7 18 -10 9 -11 8 -5 -6z"/>
<path d="M7920 2224 c0 -21 17 -25 22 -6 3 11 0 19 -8 19 -8 0 -14 -6 -14 -13z"/>
<path d="M6110 2214 c0 -6 14 -28 30 -49 17 -21 30 -33 30 -27 0 6 -5 14 -11
18 -6 3 -19 20 -30 38 -10 17 -19 26 -19 20z"/>
<path d="M6786 2179 c6 -11 64 -42 69 -37 2 2 -14 13 -36 25 -21 12 -37 17
-33 12z"/>
<path d="M4437 1493 c-2 -5 -4 -55 -3 -113 l1 -105 70 -3 c87 -3 119 11 123
54 2 20 -3 38 -14 48 -12 13 -14 20 -5 29 6 6 11 24 11 40 0 23 -7 31 -35 43
-36 15 -141 20 -148 7z m131 -32 c8 -4 12 -19 10 -32 -3 -22 -8 -24 -53 -24
-52 0 -55 4 -46 58 1 10 73 9 89 -2z m20 -120 c5 -30 -12 -41 -65 -41 -37 0
-43 3 -49 24 -9 38 3 47 59 44 46 -3 52 -6 55 -27z"/>
<path d="M4752 1488 c-5 -7 -31 -59 -55 -115 -42 -94 -44 -103 -26 -103 11 0
24 11 31 25 6 14 18 26 27 26 86 6 95 4 110 -23 14 -24 51 -40 51 -23 0 3 -21
52 -47 108 -53 117 -67 133 -91 105z m41 -73 c24 -50 22 -55 -24 -55 -22 0
-39 3 -37 8 2 4 10 24 18 45 8 20 17 37 20 37 4 0 14 -16 23 -35z"/>
<path d="M4930 1386 l0 -116 75 0 c68 0 75 2 75 20 0 18 -7 20 -57 20 l-58 0
0 92 c0 80 -3 93 -18 96 -15 3 -17 -8 -17 -112z"/>
<path d="M5147 1388 c-42 -89 -50 -114 -38 -117 13 -3 35 18 43 40 4 11 75 22
102 15 13 -3 28 -17 34 -31 10 -23 42 -36 42 -17 0 9 -60 145 -83 190 -10 17
-24 32 -32 32 -8 0 -36 -46 -68 -112z m92 20 c10 -24 17 -46 14 -50 -5 -10
-83 -10 -83 -1 0 16 35 93 43 93 4 0 16 -19 26 -42z"/>
<path d="M5528 1423 l-3 -77 -58 72 c-37 46 -65 72 -78 72 -19 0 -20 -6 -17
-107 2 -88 6 -108 18 -108 12 0 16 16 18 73 2 39 6 72 10 72 4 0 13 -10 21
-22 27 -44 105 -128 118 -128 10 0 13 27 13 115 0 108 -1 115 -20 115 -17 0
-19 -8 -22 -77z"/>
<path d="M5682 1485 c-40 -18 -66 -73 -57 -122 9 -50 43 -83 92 -90 46 -6 103
11 103 32 0 21 -11 23 -41 8 -56 -28 -120 14 -119 80 1 54 68 89 120 64 34
-17 52 -4 28 20 -22 21 -87 26 -126 8z"/>
<path d="M5872 1388 l3 -113 83 -3 c67 -2 82 0 82 12 0 11 -15 16 -62 18 -63
3 -63 3 -66 36 l-3 32 55 0 c43 0 56 3 56 15 0 12 -13 15 -55 15 -54 0 -55 0
-55 30 l0 30 60 0 c53 0 60 2 60 20 0 18 -7 20 -80 20 l-81 0 3 -112z"/>
<path d="M6688 1483 c6 -2 18 -2 25 0 6 3 1 5 -13 5 -14 0 -19 -2 -12 -5z"/>
<path d="M7248 1483 c7 -3 16 -2 19 1 4 3 -2 6 -13 5 -11 0 -14 -3 -6 -6z"/>
<path d="M7432 1476 c7 -8 15 -12 17 -11 5 6 -10 25 -20 25 -5 0 -4 -6 3 -14z"/>
<path d="M9579 1463 c-8 -10 -21 -27 -29 -38 -15 -20 -15 -20 9 0 21 18 47 55
38 55 -2 0 -10 -8 -18 -17z"/>
<path d="M6399 1423 c-5 -15 -8 -38 -6 -52 3 -21 4 -20 7 9 l2 35 9 -30 c7
-26 8 -24 5 13 -2 23 0 40 5 36 5 -3 9 0 9 5 0 21 -21 10 -31 -16z"/>
<path d="M9005 1409 c-4 -6 -5 -12 -2 -15 2 -3 7 2 10 11 7 17 1 20 -8 4z"/>
<path d="M7190 1391 c0 -5 5 -13 10 -16 6 -3 10 -2 10 4 0 5 -4 13 -10 16 -5
3 -10 2 -10 -4z"/>
<path d="M6683 1355 c0 -22 2 -30 4 -17 2 12 2 30 0 40 -3 9 -5 -1 -4 -23z"/>
<path d="M6591 1364 c0 -11 3 -14 6 -6 3 7 2 16 -1 19 -3 4 -6 -2 -5 -13z"/>
<path d="M7516 1372 c-3 -5 1 -9 9 -9 8 0 12 4 9 9 -3 4 -7 8 -9 8 -2 0 -6 -4
-9 -8z"/>
<path d="M6701 1354 c0 -11 3 -14 6 -6 3 7 2 16 -1 19 -3 4 -6 -2 -5 -13z"/>
<path d="M6195 1346 c11 -8 24 -12 29 -8 5 3 1 9 -10 13 -31 12 -39 10 -19 -5z"/>
<path d="M6574 1325 c-9 -21 -2 -26 13 -10 8 9 9 16 3 20 -6 3 -13 -1 -16 -10z"/>
<path d="M7248 1333 c6 -2 18 -2 25 0 6 3 1 5 -13 5 -14 0 -19 -2 -12 -5z"/>
<path d="M9058 1333 c7 -3 16 -2 19 1 4 3 -2 6 -13 5 -11 0 -14 -3 -6 -6z"/>
<path d="M7787 1323 c-4 -3 -7 -11 -7 -17 0 -6 5 -5 12 2 6 6 9 14 7 17 -3 3
-9 2 -12 -2z"/>
<path d="M6458 1298 c6 -6 18 -8 28 -6 14 3 12 5 -9 10 -19 3 -25 2 -19 -4z"/>
<path d="M6680 1290 c0 -6 7 -10 15 -10 8 0 15 2 15 4 0 2 -7 6 -15 10 -8 3
-15 1 -15 -4z"/>
<path d="M8120 1290 c0 -5 9 -10 20 -10 11 0 20 5 20 10 0 6 -9 10 -20 10 -11
0 -20 -4 -20 -10z"/>
</g>
</svg>
